BARBAROSSA PART 2 2009 R5 XVID ENGLISH AUDIO

Format                           : AVI
Format/Info                      : Audio Video Interleave
File size                        : 586 MiB
Duration                         : 1h 33mn
Overall bit rate                 : 438 Kbps
Writing application              : MEncoder SVN-r29352(20090610-gcc4.3.3)
Writing library                  : MPlayer

Video
ID                               : 0
Format                           : MPEG-4 Visual
Format profile                   : AdvancedSimple@L5
Format settings, BVOP            : Yes
Format settings, QPel            : No
Format settings, GMC             : No warppoints
Format settings, Matrix          : Default (H.263)
Codec ID                         : XVID
Codec ID/Hint                    : XviD
Duration                         : 1h 33mn
Bit rate                         : 767 Kbps
Width                            : 640 pixels
Height                           : 360 pixels
Display aspect ratio             : 1.957
Frame rate                       : 25.000 fps
Resolution                       : 24 bits
Colorimetry                      : 4:2:0
Scan type                        : Progressive
Bits/(Pixel*Frame)               : 0.133
Stream size                      : 514 MiB (88%)
Writing library                  : XviD 1.2.1 (UTC 2008-12-04)

Audio
ID                               : 1
Format                           : MPEG Audio
Format version                   : Version 2
Format profile                   : Layer 3
Codec ID                         : 55
Codec ID/Hint                    : MP3
Duration                         : 1h 33mn
Bit rate mode                    : Constant
Bit rate                         : 96.0 Kbps
Channel(s)                       : 2 channels
Sampling rate                    : 22.05 KHz
Resolution                       : 16 bits
Video delay                      : 40ms
Stream size                      : 64.3 MiB (11%)
Alignment                        : Aligned on interleaves
Interleave, duration             : 26 ms (0.65 video frame)
Interleave, preload duration     : 522 ms
Writing library                  : LAME3.98

The young Alberto da Giussano ( Raz Degan ), blinded by anger, seek to avenge his brothers. Egli diventa così il condottiero della Compagnia della Morte , il protagonista della lotta contro il tiranno che i liberi comuni lombardi coalizzati nella Lega Lombarda hanno giurato di condurre; ed è anche lo stratega della vittoria nella battaglia di Legnano , durante la quale il gonfalone di Milano sventola trionfante sul Carroccio . He becomes the leader of the Death Company , the hero of the fight against the tyrant that the liberal coalition in common Lombard Lombard League has vowed to lead, and it is also the strategist of victory in the Battle of Legnano , in which the banner of Milan waving triumphantly to the Northern League .

Nelle vicende belliche si intreccia l'amore di Alberto per Eleonora ( Kasia Smutniak ). In wartime events is interwoven love for Eleanor Albert ( Kasia Smutniak ).  
http://www.imdb.com/title/tt1242516/

PLEASE SEED AND ENJOY THANKS

NOTE-> This is a recode from PRISMS 1.54GB version thanks to PRISM for the original print thats all i,ve done is recoded it to a smaller file size.this is dubbed into english audio 

screen shots 
http://img109.imageshack.us/img109/7567/barbarossa2xvidviceavit.jpg